<?xml version="1.0" encoding="UTF-8" standalone="no"?>
<svg
   xmlns:dc="http://purl.org/dc/elements/1.1/"
   xmlns:cc="http://creativecommons.org/ns#"
   xmlns:rdf="http://www.w3.org/1999/02/22-rdf-syntax-ns#"
   xmlns:svg="http://www.w3.org/2000/svg"
   xmlns="http://www.w3.org/2000/svg"
   xmlns:sodipodi="http://sodipodi.sourceforge.net/DTD/sodipodi-0.dtd"
   xmlns:inkscape="http://www.inkscape.org/namespaces/inkscape"
   version="1.1"
   width="1302"
   height="386"
   viewBox="245.6552 204.25 1302 386"
   xml:space="preserve"
   id="svg13"
   sodipodi:docname="built.svg"><metadata
   id="metadata17"><rdf:RDF><cc:Work
       rdf:about=""><dc:format>image/svg+xml</dc:format><dc:type
         rdf:resource="http://purl.org/dc/dcmitype/StillImage" /></cc:Work></rdf:RDF></metadata><sodipodi:namedview
   pagecolor="#ffffff"
   bordercolor="#666666"
   borderopacity="1"
   objecttolerance="10"
   gridtolerance="10"
   guidetolerance="10"
   inkscape:pageopacity="0"
   inkscape:pageshadow="2"
   inkscape:window-width="640"
   inkscape:window-height="480"
   id="namedview15"
   fit-margin-top="70"
   fit-margin-left="70"
   fit-margin-right="70"
   fit-margin-bottom="70" />
<desc
   id="desc2">Created with Fabric.js 5.3.0</desc>
<defs
   id="defs4">
</defs>
<rect
   width="1301.5"
   height="385.5"
   fill="#ffffff"
   x="245.9552"
   y="204.55"
   id="rect6" /><g
   transform="matrix(2.02,0,0,2.02,898,377)"
   id="base_text">
		<g
   aria-label="NeuDayAI"
   id="text10"
   style="font-style:normal;font-weight:normal;font-size:120px;font-family:f16249;white-space:pre;opacity:1;fill:#0a66c2;fill-rule:nonzero;stroke:none;stroke-width:1;stroke-linecap:butt;stroke-linejoin:miter;stroke-miterlimit:4;stroke-dasharray:none;stroke-dashoffset:0"><path
     d="m -202.13999,-49.779999 h -30.72 v 4.2 l 14.04,1.68 0.12,63.6 -49.68,-69.48 h -18.72 v 4.08 l 9.84,1.2 1.08,1.56 -0.12,74.88 -11.28,1.44 v 4.32 h 30.84 v -4.32 l -13.92,-1.56 -0.12,-67.2 53.4,74.04 h 3.96 l 0.12,-82.68 11.16,-1.56 z"
     id="path19" /><path
     d="m -182.34037,1.5800008 c 1.44,-15.2399998 10.2,-22.4399998 18.96,-22.4399998 9.24,0 15.6,7.56 15.6,15.9599998 0,3.84 -1.2,6.48 -6.48,6.48 z m 42.72,4.68 c 0.6,-1.8 0.84,-4.32 0.84,-7.44 0,-14.9999998 -10.08,-24.4799998 -24,-24.4799998 -15.84,0 -29.4,12.84 -29.4,32.8799998 0,20.5200002 12.12,32.1600002 28.92,32.1600002 11.16,0 19.44,-5.52 24.36,-14.16 l -2.52,-1.92 c -4.68,5.64 -10.32,9.36 -18.84,9.36 -12.72,0 -22.08,-8.76 -22.2,-26.5200002 z"
     id="path21" /><path
     d="M -70.020395,32.420001 V -5.2599992 l 0.48,-18.2399998 -1.32,-1.32 -17.76,1.56 v 3.84 l 9.84,1.68 -0.24,39.84 c -6.12,6.36 -12.72,9.6 -19.56,9.6 -7.799995,0 -11.639995,-4.32 -11.639995,-16.8 V -5.2599992 l 0.6,-18.2399998 -1.2,-1.32 -18,1.56 v 3.84 l 9.96,1.68 -0.36,33.36 c -0.12,17.64 6.24,23.76 17.04,23.76 8.399995,0 16.679995,-4.32 23.399995,-12.6 l 0.96,12 17.04,-1.08 v -3.84 z"
     id="path23" /><path
     d="m -26.340402,32.780001 c -0.36,-11.88 -0.36,-24.0000002 -0.36,-37.5600002 v -4.32 c 0,-12.2399998 0,-24.2399998 0.36,-35.7599998 h 12.24 c 20.8799998,0 32.64,13.56 32.64,38.8799998 0,24.2400002 -11.7600002,38.7600002 -33.96,38.7600002 z m -23.16,-82.56 v 4.2 l 12.48,1.32 c 0.36,11.52 0.36,23.28 0.36,35.1599998 v 4.32 c 0,13.56 0,25.4400002 -0.36,36.8400002 l -12.48,1.32 v 4.32 h 35.16 c 26.04,0 44.4,-15.96 44.4,-43.6800002 0,-28.3199998 -16.8,-43.7999998 -42.24,-43.7999998 z"
     id="path25" /><path
     d="m 80.099536,24.020001 c -7.68,6.12 -11.16,8.28 -16.2,8.28 -6.48,0 -11.04,-3.24 -11.04,-10.44 0,-4.8 2.16,-9.84 13.8,-14.2800002 3.24,-1.32 8.52,-3 13.44,-4.32 z m 19.68,6.6 c -1.8,1.92 -3.24,2.88 -5.4,2.88 -3.24,0 -5.16,-2.16 -5.16,-9.12 V -4.0599992 c 0,-15.5999998 -6.48,-21.5999998 -19.8,-21.5999998 -12.72,0 -22.08,5.88 -24.6,15.7199998 0.24,2.88 2.28,4.56 5.28,4.56 3.12,0 4.92,-1.8 5.88,-5.2799998 l 2.64,-8.88 c 3.12,-1.08 5.88,-1.32 8.4,-1.32 9.12,0 13.08,3.24 13.08,16.4399998 v 3.83999996 c -5.52,1.2 -11.28,2.88000004 -15.96,4.32000004 -16.32,5.88 -21,11.7600002 -21,19.8000002 0,10.32 7.68,15.84 17.28,15.84 7.8,0 12.6,-3.48 19.92,-10.92 1.08,6.6 4.92,10.68 11.04,10.68 4.2,0 7.56,-1.68 10.440004,-6 z"
     id="path27" /><path
     d="m 168.17927,-23.979999 h -25.08 v 3.72 l 11.76,1.56 -17.04,47.64 -17.64,-47.76 11.52,-1.32 v -3.84 h -29.76 v 3.72 l 7.68,1.08 23.76,60 -1.08,2.76 c -3,8.28 -7.2,15.6 -13.32,19.92 l -0.96,-0.96 c -3.12,-3 -5.64,-4.44 -9,-4.44 -3.48,0 -6.84,1.56 -7.56,4.8 0.12,4.56 5.28,7.56 11.16,7.56 9.72,0 17.88,-8.88 26.16,-30.84 l 22.08,-58.44 7.32,-1.44 z"
     id="path29" /><path
     d="m 186.179,3.2600008 13.68,-41.5199998 13.8,41.5199998 z m 47.76,28.9200002 -28.2,-82.8 h -6.72 l -27.72,82.56 -10.8,1.44 v 4.32 h 28.8 v -4.32 l -12.6,-1.56 7.8,-23.6400002 h 30.84 l 7.92,23.8800002 -13.2,1.32 v 4.32 h 34.68 v -4.32 z"
     id="path31" /><path
     d="m 286.49896,-45.579999 v -4.2 h -35.64 v 4.2 l 12.48,1.32 c 0.36,11.52 0.36,23.28 0.36,34.9199998 v 6.6 c 0,11.76 0,23.4000002 -0.36,34.8000002 l -12.48,1.32 v 4.32 h 35.64 v -4.32 l -12.48,-1.32 c -0.36,-11.52 -0.36,-23.2800002 -0.36,-34.8000002 v -6.6 c 0,-11.8799998 0,-23.5199998 0.36,-34.9199998 z"
     id="path33" /></g>
</g></svg>
